<?xml version="1.0" standalone="no"?>
<!DOCTYPE svg PUBLIC "-//W3C//DTD SVG 20010904//EN"
 "http://www.w3.org/TR/2001/REC-SVG-20010904/DTD/svg10.dtd">
<svg version="1.0" xmlns="http://www.w3.org/2000/svg"
 width="1024.000000pt" height="1024.000000pt" viewBox="0 0 1024.000000 1024.000000"
 preserveAspectRatio="xMidYMid meet">

<g transform="translate(0.000000,1024.000000) scale(0.100000,-0.100000)"
fill="#000000" stroke="none">
<path d="M2958 5995 c-120 -30 -242 -112 -326 -218 -107 -134 -175 -271 -342
-687 -56 -140 -105 -258 -109 -263 -4 -4 -54 102 -111 235 -154 364 -185 424
-250 489 -74 74 -138 99 -260 99 -97 0 -120 -5 -120 -26 0 -10 14 -14 48 -14
105 -1 183 -69 261 -232 43 -90 93 -206 296 -683 38 -92 44 -100 69 -100 26 0
31 9 115 215 185 453 282 661 373 800 63 96 190 219 268 258 211 106 401 81
665 -88 204 -130 345 -188 522 -215 227 -34 475 -7 943 105 273 65 337 74 525
75 151 0 178 -3 245 -24 100 -31 144 -54 199 -106 54 -50 85 -108 102 -185 9
-44 14 -51 20 -35 4 11 8 46 8 77 2 174 -137 313 -351 348 -93 15 -252 12
-359 -6 -52 -9 -184 -38 -294 -66 -110 -27 -240 -58 -290 -68 -353 -73 -725
-63 -959 25 -89 33 -124 52 -295 153 -190 113 -279 144 -426 148 -74 3 -129
-1 -167 -11z"/>
<path d="M2773 5606 c-37 -17 -53 -43 -53 -88 0 -67 60 -110 125 -88 65 22 85
98 38 149 -34 37 -68 45 -110 27z"/>
<path d="M3290 5613 c-8 -4 -62 -19 -120 -33 -120 -31 -143 -54 -64 -63 25 -2
50 -11 55 -18 5 -8 9 -204 9 -436 l0 -423 -45 0 c-38 0 -45 -3 -45 -20 0 -19
7 -20 170 -20 162 0 170 1 170 19 0 17 -8 20 -47 23 l-48 3 -3 488 c-1 268 -6
487 -10 486 -4 0 -14 -3 -22 -6z"/>
<path d="M3615 5586 c-136 -37 -157 -56 -78 -72 l48 -9 3 -432 2 -433 -45 0
c-38 0 -45 -3 -45 -20 0 -19 7 -20 175 -20 168 0 175 1 175 20 0 17 -7 20 -50
20 l-50 0 0 490 c0 270 -3 490 -7 489 -5 -1 -62 -16 -128 -33z"/>
<path d="M5690 5586 c-83 -23 -116 -37 -118 -49 -3 -12 4 -17 22 -17 13 0 36
-4 50 -10 l26 -10 0 -430 0 -430 -45 0 c-38 0 -45 -3 -45 -20 0 -19 7 -20 175
-20 168 0 175 1 175 20 0 17 -7 20 -50 20 l-50 0 0 490 c0 386 -3 490 -12 489
-7 0 -65 -15 -128 -33z"/>
<path d="M7765 5585 c-87 -23 -121 -36 -123 -48 -3 -12 4 -17 22 -17 13 0 36
-4 50 -10 l26 -10 0 -430 0 -430 -45 0 c-38 0 -45 -3 -45 -20 0 -19 7 -20 175
-20 168 0 175 1 175 20 0 17 -7 20 -50 20 l-50 0 0 484 c0 267 -3 487 -7 489
-5 2 -62 -10 -128 -28z"/>
<path d="M6873 5577 c-89 -25 -113 -36 -113 -49 0 -14 8 -18 34 -18 71 0 66
32 66 -425 l0 -413 73 -31 c41 -16 93 -35 118 -40 74 -17 180 -13 255 10 57
18 77 31 129 82 88 88 110 146 110 293 0 107 -1 113 -35 180 -56 109 -136 157
-262 156 -89 0 -162 -44 -215 -128 -9 -15 -12 26 -12 199 -1 200 -2 217 -18
216 -10 0 -69 -15 -130 -32z m408 -360 c64 -43 94 -107 105 -227 25 -260 -131
-425 -314 -334 l-52 26 0 181 c0 240 20 313 95 358 44 27 123 25 166 -4z"/>
<path d="M4830 5573 c-52 -13 -105 -26 -117 -29 -13 -2 -23 -11 -23 -19 0 -14
19 -21 70 -27 22 -3 26 -9 32 -58 3 -30 6 -216 7 -413 l1 -358 56 -26 c84 -38
150 -53 241 -53 235 0 384 152 385 395 1 206 -110 335 -287 335 -91 0 -138
-22 -198 -91 l-46 -53 2 212 c2 183 0 212 -13 211 -8 -1 -58 -13 -110 -26z
m368 -347 c78 -41 113 -113 120 -249 11 -216 -72 -346 -221 -347 -49 0 -112
25 -136 54 -10 12 -12 58 -9 203 7 236 21 284 103 334 36 23 105 25 143 5z"/>
<path d="M4159 5317 c-103 -29 -159 -87 -159 -163 0 -57 25 -84 79 -84 65 0
97 57 70 126 -23 62 12 94 105 94 95 0 136 -55 136 -183 0 -89 4 -85 -160
-117 -182 -36 -271 -95 -287 -193 -20 -129 74 -213 229 -206 92 5 159 37 205
98 18 23 33 37 33 29 0 -7 13 -40 29 -73 53 -111 144 -192 267 -236 80 -30
251 -32 342 -5 36 11 61 24 59 30 -3 6 -11 9 -18 8 -8 -2 -41 -7 -74 -11 -166
-18 -313 43 -394 166 -57 85 -72 156 -80 374 -7 196 -7 197 -37 245 -42 69
-113 104 -220 110 -47 2 -97 -1 -125 -9z m222 -548 c-14 -47 -79 -106 -126
-115 -50 -9 -104 14 -133 56 -20 29 -23 44 -20 88 8 93 49 127 193 164 l90 23
3 -90 c2 -49 -2 -106 -7 -126z"/>
<path d="M6235 5315 c-27 -8 -53 -14 -57 -15 -5 0 -26 -16 -48 -36 -48 -43
-65 -95 -49 -143 26 -75 135 -67 154 12 4 13 0 41 -9 61 -8 20 -13 43 -9 52
15 41 126 58 183 29 46 -24 64 -68 64 -160 1 -76 0 -80 -25 -92 -15 -7 -72
-22 -129 -33 -142 -29 -202 -53 -244 -100 -85 -94 -65 -223 44 -277 34 -18 61
-23 120 -23 89 0 155 27 209 84 l35 36 21 -42 c40 -79 146 -101 213 -43 35 30
20 53 -22 34 -23 -11 -29 -10 -44 5 -15 14 -18 48 -22 254 -4 186 -9 245 -21
272 -19 41 -79 97 -126 117 -51 21 -179 26 -238 8z m235 -412 c0 -49 -5 -105
-10 -125 -22 -77 -118 -141 -186 -124 -15 4 -42 22 -61 41 -29 29 -33 39 -33
87 0 97 47 141 183 176 43 11 81 23 85 26 17 17 22 -2 22 -81z"/>
<path d="M8303 5316 c-102 -25 -163 -87 -163 -166 0 -69 82 -103 135 -57 30
25 35 68 15 118 -13 30 -12 33 14 55 21 19 39 24 82 24 68 0 107 -19 127 -63
19 -40 32 -135 23 -170 -7 -29 -55 -50 -154 -67 -221 -38 -318 -122 -297 -257
14 -97 101 -149 234 -141 88 5 148 32 195 89 15 17 28 30 29 28 2 -2 10 -21
19 -41 22 -48 59 -71 112 -70 43 0 98 22 111 43 13 20 -10 31 -39 18 -48 -22
-51 -10 -56 249 -5 228 -6 239 -30 286 -32 64 -80 101 -155 121 -70 18 -130
18 -202 1z m234 -431 c-7 -131 -29 -178 -97 -213 -80 -41 -162 -13 -188 64
-23 70 8 151 72 186 19 11 189 65 210 67 5 1 6 -44 3 -104z"/>
<path d="M2855 5309 c-16 -5 -70 -20 -120 -33 -62 -16 -91 -29 -93 -40 -3 -11
4 -16 22 -16 13 0 36 -4 50 -10 l26 -10 0 -280 0 -280 -45 0 c-38 0 -45 -3
-45 -20 0 -19 7 -20 170 -20 163 0 170 1 170 20 0 17 -7 20 -45 20 l-45 0 0
340 c0 187 -3 340 -7 339 -5 0 -21 -5 -38 -10z"/>
</g>
</svg>
